<?xml version="1.0" encoding="UTF-8"?>
<svg id="Layer_2" xmlns="http://www.w3.org/2000/svg" viewBox="0 0 1096.03 348.1">
  <defs>
    <style>
      .cls-1 {
        fill: #fff;
      }
    </style>
  </defs>
  <g id="Layer_1-2" data-name="Layer_1">
    <g>
      <path class="cls-1" d="M337.44,249.76s-40.98,4.17-72.67,31.33c-31.69,27.16-42.08,67.02-42.08,67.02,0,0,40.98-4.17,72.67-31.33,31.69-27.16,42.08-67.02,42.08-67.02Z"/>
      <path class="cls-1" d="M306.37,245.95c40.23-12.01,35.05-45.94,35.05-45.94,0,0-37.85-1.59-74.26,27.9-48,38.88-54.63,112.72-54.63,112.72,0,0,22.1-71.78,93.84-94.68Z"/>
      <path class="cls-1" d="M90.4,244.59s37.69,56.39,115.29,64.28c-7.26-7.25-11.77-12.9-18.39-21.2-69.96-6.93-96.9-43.08-96.9-43.08Z"/>
      <path class="cls-1" d="M155.68,213.51c-26.84-25.91-56.56-27.38-56.56-27.38,0,0,.36,36,22.6,61.16,20.39,23.07,53,29.01,58.12,29.84.03-.07.05-.13.08-.2-11.16-16.92-21.83-38.92-24.21-63.39,0-.01-.01-.02-.02-.03Z"/>
      <path class="cls-1" d="M199.79,200.16c0-9.93,8.07-18,18-18s18,8.07,18,18c0,7.38-4.47,13.71-10.83,16.49v45.9c7.6-15.17,18.69-30.77,34.98-43.73,2.91-2.31,5.74-4.37,8.54-6.31.29-2.96.46-5.95.46-8.97,0-55.64-51.15-100.75-51.15-100.75,0,0-51.15,45.11-51.15,100.75,0,42.62,29.94,78.97,43.99,93.69v-80.57c-6.37-2.78-10.84-9.12-10.84-16.5Z"/>
      <path class="cls-1" d="M387.99,139.02l.02-42.1L218.19,0,0,123.42l8.24,14.56L218.16,19.24l153.11,87.4v22.92S218.07,42.91,218.07,42.91L43.98,142.18l.04,197.26h157.26v-16.73H60.74v-170.84L218.1,62.15l153.15,86.63-.07,173.89-65.27.03c-1.02.93-2.05,1.85-3.11,2.76-6.39,5.48-13.11,10.09-19.81,13.98l104.91-.04.08-181.16,34.26,19.38,8.23-14.57-42.48-24.03Z"/>
      <g>
        <path class="cls-1" d="M517.03,208.29v102.98h-16.89v-45.04h-48.45v45.04h-16.89v-102.98h16.89v44.16h48.45v-44.16h16.89Z"/>
        <path class="cls-1" d="M601.18,267.12c3.85,4.84,5.78,10.32,5.78,16.45,0,5.24-1.36,9.95-4.07,14.15-2.72,4.2-6.65,7.51-11.78,9.93-5.14,2.42-11.11,3.63-17.93,3.63h-41.19v-102.98h39.27c7.01,0,13.04,1.18,18.08,3.56,5.04,2.37,8.84,5.56,11.41,9.56,2.57,4,3.85,8.47,3.85,13.41,0,5.93-1.58,10.87-4.74,14.82-3.16,3.95-7.41,6.87-12.74,8.74,5.53.99,10.22,3.9,14.08,8.74ZM548.87,251.56h20.89c5.53,0,9.85-1.26,12.97-3.78,3.11-2.52,4.67-6.15,4.67-10.89s-1.56-8.27-4.67-10.89c-3.11-2.62-7.43-3.93-12.97-3.93h-20.89v29.49ZM585.17,293.34c3.26-2.76,4.89-6.62,4.89-11.56s-1.73-9.04-5.19-12c-3.46-2.96-8.05-4.44-13.78-4.44h-22.23v32.15h22.82c5.73,0,10.23-1.38,13.48-4.15Z"/>
        <path class="cls-1" d="M706.42,311.27h-16.87l-50.75-76.79v76.79h-16.87v-102.98h16.87l50.75,76.65v-76.65h16.87v102.98Z"/>
        <path class="cls-1" d="M750.76,305.7h38.29v5.58h-44.89v-102.98h6.6v97.41Z"/>
        <path class="cls-1" d="M810.6,213.86v42.98h41.08v5.57h-41.08v43.28h45.48v5.58h-52.08v-102.98h52.08v5.58h-45.48Z"/>
        <path class="cls-1" d="M877.63,213.86v42.98h41.08v5.57h-41.08v43.28h45.48v5.58h-52.08v-102.98h52.08v5.58h-45.48Z"/>
        <path class="cls-1" d="M1007.22,222.22c9.43,9.1,14.16,21.76,14.16,38s-4.72,28.85-14.16,37.85c-9.44,9-22.86,13.5-40.27,13.5h-28.9v-102.98h28.9c17.41,0,30.83,4.55,40.27,13.64ZM1002.45,293.89c8.12-8.07,12.18-19.29,12.18-33.67s-4.06-25.77-12.18-33.89c-8.12-8.12-19.95-12.17-35.5-12.17h-22.3v91.83h22.3c15.55,0,27.38-4.03,35.5-12.1Z"/>
        <path class="cls-1" d="M1047.07,308.79c-4.97-2.34-8.84-5.5-11.62-9.5-2.78-4-4.36-8.43-4.75-13.3h6.87c.78,5.36,3.29,10.13,7.53,14.32,4.24,4.19,10.69,6.28,19.36,6.28,5.07,0,9.48-.92,13.23-2.78,3.75-1.85,6.65-4.38,8.69-7.6,2.05-3.21,3.07-6.77,3.07-10.67,0-4.97-1.19-8.91-3.58-11.84s-5.36-5.11-8.91-6.58c-3.56-1.46-8.36-3.02-14.4-4.68-6.62-1.75-11.96-3.51-16-5.26s-7.45-4.46-10.23-8.11c-2.78-3.65-4.17-8.65-4.17-14.98,0-4.87,1.29-9.33,3.87-13.37,2.58-4.04,6.26-7.23,11.03-9.57,4.77-2.34,10.28-3.51,16.51-3.51,9.06,0,16.37,2.24,21.92,6.72,5.55,4.48,8.87,9.99,9.94,16.51h-7.02c-.58-2.63-1.88-5.31-3.87-8.04-2-2.73-4.82-4.99-8.48-6.8-3.65-1.8-8.02-2.7-13.08-2.7-6.82,0-12.57,1.88-17.25,5.63-4.68,3.75-7.01,8.75-7.01,14.98,0,4.97,1.22,8.94,3.65,11.91,2.44,2.97,5.43,5.22,8.99,6.72,3.56,1.51,8.36,3.05,14.4,4.61,6.72,1.85,12.06,3.63,16,5.33,3.95,1.71,7.31,4.38,10.08,8.04,2.78,3.65,4.17,8.6,4.17,14.83,0,4.58-1.22,8.91-3.65,13.01-2.44,4.09-6.02,7.43-10.74,10.01-4.73,2.58-10.45,3.87-17.17,3.87s-12.42-1.17-17.39-3.51Z"/>
      </g>
    </g>
  </g>
</svg>